<mxfile host="app.diagrams.net" modified="2023-09-06T18:04:21.973Z" agent="Mozilla/5.0 (Windows NT 10.0; Win64; x64) AppleWebKit/537.36 (KHTML, like Gecko) Chrome/116.0.0.0 Safari/537.36" etag="oGcAsWtyNFTJwQFZIBes" version="21.7.2" type="device">
  <diagram name="Page-1" id="RKBlEXqTn5jJfGL7q3--">
    <mxGraphModel dx="896" dy="474" grid="1" gridSize="10" guides="1" tooltips="1" connect="1" arrows="1" fold="1" page="1" pageScale="1" pageWidth="827" pageHeight="1169" math="0" shadow="0">
      <root>
        <mxCell id="0" />
        <mxCell id="1" parent="0" />
        <mxCell id="2eMa4MTnB2cK6f5te78B-8" style="rounded=0;orthogonalLoop=1;jettySize=auto;html=1;exitX=0.5;exitY=0.5;exitDx=0;exitDy=0;exitPerimeter=0;entryX=0;entryY=0.5;entryDx=0;entryDy=0;endArrow=none;endFill=0;" edge="1" parent="1" source="2eMa4MTnB2cK6f5te78B-1" target="2eMa4MTnB2cK6f5te78B-5">
          <mxGeometry relative="1" as="geometry" />
        </mxCell>
        <mxCell id="2eMa4MTnB2cK6f5te78B-9" style="rounded=0;orthogonalLoop=1;jettySize=auto;html=1;exitX=0.5;exitY=0.5;exitDx=0;exitDy=0;exitPerimeter=0;entryX=0;entryY=0.5;entryDx=0;entryDy=0;endArrow=none;endFill=0;" edge="1" parent="1" source="2eMa4MTnB2cK6f5te78B-1" target="2eMa4MTnB2cK6f5te78B-6">
          <mxGeometry relative="1" as="geometry" />
        </mxCell>
        <mxCell id="2eMa4MTnB2cK6f5te78B-13" style="rounded=0;orthogonalLoop=1;jettySize=auto;html=1;exitX=0.5;exitY=0.5;exitDx=0;exitDy=0;exitPerimeter=0;entryX=0;entryY=0.5;entryDx=0;entryDy=0;endArrow=none;endFill=0;" edge="1" parent="1" source="2eMa4MTnB2cK6f5te78B-1" target="2eMa4MTnB2cK6f5te78B-12">
          <mxGeometry relative="1" as="geometry" />
        </mxCell>
        <mxCell id="2eMa4MTnB2cK6f5te78B-1" value="Студент" style="shape=umlActor;verticalLabelPosition=bottom;verticalAlign=top;html=1;outlineConnect=0;" vertex="1" parent="1">
          <mxGeometry x="50" y="120" width="30" height="60" as="geometry" />
        </mxCell>
        <mxCell id="2eMa4MTnB2cK6f5te78B-15" style="rounded=0;orthogonalLoop=1;jettySize=auto;html=1;exitX=0.5;exitY=0.5;exitDx=0;exitDy=0;exitPerimeter=0;entryX=0;entryY=0.5;entryDx=0;entryDy=0;endArrow=none;endFill=0;" edge="1" parent="1" source="2eMa4MTnB2cK6f5te78B-2" target="2eMa4MTnB2cK6f5te78B-10">
          <mxGeometry relative="1" as="geometry" />
        </mxCell>
        <mxCell id="2eMa4MTnB2cK6f5te78B-16" style="rounded=0;orthogonalLoop=1;jettySize=auto;html=1;exitX=0.5;exitY=0.5;exitDx=0;exitDy=0;exitPerimeter=0;entryX=0;entryY=0.5;entryDx=0;entryDy=0;endArrow=none;endFill=0;" edge="1" parent="1" source="2eMa4MTnB2cK6f5te78B-2" target="2eMa4MTnB2cK6f5te78B-11">
          <mxGeometry relative="1" as="geometry" />
        </mxCell>
        <mxCell id="2eMa4MTnB2cK6f5te78B-17" style="rounded=0;orthogonalLoop=1;jettySize=auto;html=1;exitX=0.5;exitY=0.5;exitDx=0;exitDy=0;exitPerimeter=0;entryX=0;entryY=0.5;entryDx=0;entryDy=0;endArrow=none;endFill=0;" edge="1" parent="1" source="2eMa4MTnB2cK6f5te78B-2" target="2eMa4MTnB2cK6f5te78B-14">
          <mxGeometry relative="1" as="geometry" />
        </mxCell>
        <mxCell id="2eMa4MTnB2cK6f5te78B-2" value="Преподаватель" style="shape=umlActor;verticalLabelPosition=bottom;verticalAlign=top;html=1;outlineConnect=0;" vertex="1" parent="1">
          <mxGeometry x="50" y="370" width="30" height="60" as="geometry" />
        </mxCell>
        <mxCell id="2eMa4MTnB2cK6f5te78B-22" style="rounded=0;orthogonalLoop=1;jettySize=auto;html=1;exitX=0.5;exitY=0.5;exitDx=0;exitDy=0;exitPerimeter=0;entryX=0;entryY=0.5;entryDx=0;entryDy=0;endArrow=none;endFill=0;" edge="1" parent="1" source="2eMa4MTnB2cK6f5te78B-3" target="2eMa4MTnB2cK6f5te78B-20">
          <mxGeometry relative="1" as="geometry" />
        </mxCell>
        <mxCell id="2eMa4MTnB2cK6f5te78B-23" style="rounded=0;orthogonalLoop=1;jettySize=auto;html=1;exitX=0.5;exitY=0.5;exitDx=0;exitDy=0;exitPerimeter=0;entryX=0;entryY=0.5;entryDx=0;entryDy=0;endArrow=none;endFill=0;" edge="1" parent="1" source="2eMa4MTnB2cK6f5te78B-3" target="2eMa4MTnB2cK6f5te78B-18">
          <mxGeometry relative="1" as="geometry" />
        </mxCell>
        <mxCell id="2eMa4MTnB2cK6f5te78B-24" style="rounded=0;orthogonalLoop=1;jettySize=auto;html=1;exitX=0.5;exitY=0.5;exitDx=0;exitDy=0;exitPerimeter=0;entryX=0;entryY=0.5;entryDx=0;entryDy=0;endArrow=none;endFill=0;" edge="1" parent="1" source="2eMa4MTnB2cK6f5te78B-3" target="2eMa4MTnB2cK6f5te78B-21">
          <mxGeometry relative="1" as="geometry" />
        </mxCell>
        <mxCell id="2eMa4MTnB2cK6f5te78B-3" value="Административный персонал" style="shape=umlActor;verticalLabelPosition=bottom;verticalAlign=top;html=1;outlineConnect=0;" vertex="1" parent="1">
          <mxGeometry x="410" y="110" width="30" height="60" as="geometry" />
        </mxCell>
        <mxCell id="2eMa4MTnB2cK6f5te78B-26" style="rounded=0;orthogonalLoop=1;jettySize=auto;html=1;exitX=0.5;exitY=0.5;exitDx=0;exitDy=0;exitPerimeter=0;entryX=0;entryY=0.5;entryDx=0;entryDy=0;endArrow=none;endFill=0;" edge="1" parent="1" source="2eMa4MTnB2cK6f5te78B-4" target="2eMa4MTnB2cK6f5te78B-25">
          <mxGeometry relative="1" as="geometry" />
        </mxCell>
        <mxCell id="2eMa4MTnB2cK6f5te78B-4" value="Библиотекарь" style="shape=umlActor;verticalLabelPosition=bottom;verticalAlign=top;html=1;outlineConnect=0;" vertex="1" parent="1">
          <mxGeometry x="414" y="370" width="30" height="60" as="geometry" />
        </mxCell>
        <mxCell id="2eMa4MTnB2cK6f5te78B-5" value="Просмотр расписания" style="ellipse;whiteSpace=wrap;html=1;" vertex="1" parent="1">
          <mxGeometry x="120" y="30" width="80" height="60" as="geometry" />
        </mxCell>
        <mxCell id="2eMa4MTnB2cK6f5te78B-6" value="Подача заявления на стипендию" style="ellipse;whiteSpace=wrap;html=1;" vertex="1" parent="1">
          <mxGeometry x="120" y="120" width="80" height="60" as="geometry" />
        </mxCell>
        <mxCell id="2eMa4MTnB2cK6f5te78B-10" value="Ведения журнала оценок" style="ellipse;whiteSpace=wrap;html=1;" vertex="1" parent="1">
          <mxGeometry x="130" y="300" width="80" height="60" as="geometry" />
        </mxCell>
        <mxCell id="2eMa4MTnB2cK6f5te78B-11" value="Выкладывание заданий студентам" style="ellipse;whiteSpace=wrap;html=1;" vertex="1" parent="1">
          <mxGeometry x="120" y="365" width="100" height="70" as="geometry" />
        </mxCell>
        <mxCell id="2eMa4MTnB2cK6f5te78B-12" value="Скачивание нужных материалов" style="ellipse;whiteSpace=wrap;html=1;" vertex="1" parent="1">
          <mxGeometry x="115" y="190" width="90" height="70" as="geometry" />
        </mxCell>
        <mxCell id="2eMa4MTnB2cK6f5te78B-14" value="Создание расписания на свои занятия" style="ellipse;whiteSpace=wrap;html=1;" vertex="1" parent="1">
          <mxGeometry x="120" y="440" width="100" height="70" as="geometry" />
        </mxCell>
        <mxCell id="2eMa4MTnB2cK6f5te78B-18" value="Управление регистрацией студента" style="ellipse;whiteSpace=wrap;html=1;" vertex="1" parent="1">
          <mxGeometry x="490" y="40" width="80" height="60" as="geometry" />
        </mxCell>
        <mxCell id="2eMa4MTnB2cK6f5te78B-20" value="Управление финансовыми вопросами" style="ellipse;whiteSpace=wrap;html=1;" vertex="1" parent="1">
          <mxGeometry x="490" y="110" width="80" height="60" as="geometry" />
        </mxCell>
        <mxCell id="2eMa4MTnB2cK6f5te78B-21" value="Управление рекрутингом" style="ellipse;whiteSpace=wrap;html=1;" vertex="1" parent="1">
          <mxGeometry x="490" y="190" width="80" height="60" as="geometry" />
        </mxCell>
        <mxCell id="2eMa4MTnB2cK6f5te78B-25" value="Управление книгами" style="ellipse;whiteSpace=wrap;html=1;" vertex="1" parent="1">
          <mxGeometry x="490" y="370" width="80" height="60" as="geometry" />
        </mxCell>
        <mxCell id="2eMa4MTnB2cK6f5te78B-29" style="rounded=0;orthogonalLoop=1;jettySize=auto;html=1;exitX=0.5;exitY=0.5;exitDx=0;exitDy=0;exitPerimeter=0;entryX=-0.032;entryY=0.505;entryDx=0;entryDy=0;entryPerimeter=0;endArrow=none;endFill=0;" edge="1" parent="1" source="2eMa4MTnB2cK6f5te78B-27" target="2eMa4MTnB2cK6f5te78B-28">
          <mxGeometry relative="1" as="geometry" />
        </mxCell>
        <mxCell id="2eMa4MTnB2cK6f5te78B-27" value="Исследовательский персонал" style="shape=umlActor;verticalLabelPosition=bottom;verticalAlign=top;html=1;outlineConnect=0;" vertex="1" parent="1">
          <mxGeometry x="414" y="530" width="30" height="60" as="geometry" />
        </mxCell>
        <mxCell id="2eMa4MTnB2cK6f5te78B-28" value="Управление данными об исследованиях" style="ellipse;whiteSpace=wrap;html=1;" vertex="1" parent="1">
          <mxGeometry x="490" y="520" width="110" height="80" as="geometry" />
        </mxCell>
        <mxCell id="2eMa4MTnB2cK6f5te78B-39" style="rounded=0;orthogonalLoop=1;jettySize=auto;html=1;exitX=0.5;exitY=0.5;exitDx=0;exitDy=0;exitPerimeter=0;entryX=0;entryY=0.5;entryDx=0;entryDy=0;endArrow=none;endFill=0;" edge="1" parent="1" source="2eMa4MTnB2cK6f5te78B-31" target="2eMa4MTnB2cK6f5te78B-38">
          <mxGeometry relative="1" as="geometry" />
        </mxCell>
        <mxCell id="2eMa4MTnB2cK6f5te78B-31" value="IT-персонал" style="shape=umlActor;verticalLabelPosition=bottom;verticalAlign=top;html=1;outlineConnect=0;" vertex="1" parent="1">
          <mxGeometry x="50" y="585" width="30" height="60" as="geometry" />
        </mxCell>
        <mxCell id="2eMa4MTnB2cK6f5te78B-42" style="rounded=0;orthogonalLoop=1;jettySize=auto;html=1;exitX=0.5;exitY=0.5;exitDx=0;exitDy=0;exitPerimeter=0;entryX=0;entryY=0.5;entryDx=0;entryDy=0;endArrow=none;endFill=0;" edge="1" parent="1" source="2eMa4MTnB2cK6f5te78B-32" target="2eMa4MTnB2cK6f5te78B-40">
          <mxGeometry relative="1" as="geometry" />
        </mxCell>
        <mxCell id="2eMa4MTnB2cK6f5te78B-43" style="rounded=0;orthogonalLoop=1;jettySize=auto;html=1;exitX=0.5;exitY=0.5;exitDx=0;exitDy=0;exitPerimeter=0;entryX=0;entryY=0.5;entryDx=0;entryDy=0;endArrow=none;endFill=0;" edge="1" parent="1" source="2eMa4MTnB2cK6f5te78B-32" target="2eMa4MTnB2cK6f5te78B-41">
          <mxGeometry relative="1" as="geometry" />
        </mxCell>
        <mxCell id="2eMa4MTnB2cK6f5te78B-32" value="Декан" style="shape=umlActor;verticalLabelPosition=bottom;verticalAlign=top;html=1;outlineConnect=0;" vertex="1" parent="1">
          <mxGeometry x="414" y="670" width="30" height="60" as="geometry" />
        </mxCell>
        <mxCell id="2eMa4MTnB2cK6f5te78B-45" style="rounded=0;orthogonalLoop=1;jettySize=auto;html=1;exitX=0.5;exitY=0.5;exitDx=0;exitDy=0;exitPerimeter=0;entryX=0;entryY=0.5;entryDx=0;entryDy=0;endArrow=none;endFill=0;" edge="1" parent="1" source="2eMa4MTnB2cK6f5te78B-33" target="2eMa4MTnB2cK6f5te78B-44">
          <mxGeometry relative="1" as="geometry" />
        </mxCell>
        <mxCell id="2eMa4MTnB2cK6f5te78B-33" value="Сотрудник безопасности" style="shape=umlActor;verticalLabelPosition=bottom;verticalAlign=top;html=1;outlineConnect=0;" vertex="1" parent="1">
          <mxGeometry x="70" y="830" width="30" height="60" as="geometry" />
        </mxCell>
        <mxCell id="2eMa4MTnB2cK6f5te78B-49" style="rounded=0;orthogonalLoop=1;jettySize=auto;html=1;exitX=0.5;exitY=0.5;exitDx=0;exitDy=0;exitPerimeter=0;entryX=0;entryY=0.5;entryDx=0;entryDy=0;endArrow=none;endFill=0;" edge="1" parent="1" source="2eMa4MTnB2cK6f5te78B-34" target="2eMa4MTnB2cK6f5te78B-48">
          <mxGeometry relative="1" as="geometry" />
        </mxCell>
        <mxCell id="2eMa4MTnB2cK6f5te78B-34" value="Сотрудник отдела кадров" style="shape=umlActor;verticalLabelPosition=bottom;verticalAlign=top;html=1;outlineConnect=0;" vertex="1" parent="1">
          <mxGeometry x="430" y="860" width="30" height="60" as="geometry" />
        </mxCell>
        <mxCell id="2eMa4MTnB2cK6f5te78B-38" value="Обеспечение функционирование БД" style="ellipse;whiteSpace=wrap;html=1;" vertex="1" parent="1">
          <mxGeometry x="120" y="582.5" width="120" height="65" as="geometry" />
        </mxCell>
        <mxCell id="2eMa4MTnB2cK6f5te78B-40" value="Создание отчета" style="ellipse;whiteSpace=wrap;html=1;" vertex="1" parent="1">
          <mxGeometry x="490" y="630" width="70" height="50" as="geometry" />
        </mxCell>
        <mxCell id="2eMa4MTnB2cK6f5te78B-41" value="Просмотр академической успешности студентов" style="ellipse;whiteSpace=wrap;html=1;" vertex="1" parent="1">
          <mxGeometry x="470" y="700" width="110" height="70" as="geometry" />
        </mxCell>
        <mxCell id="2eMa4MTnB2cK6f5te78B-44" value="Просмотр записей с камер видеонаблюдения" style="ellipse;whiteSpace=wrap;html=1;" vertex="1" parent="1">
          <mxGeometry x="150" y="817.5" width="120" height="85" as="geometry" />
        </mxCell>
        <mxCell id="2eMa4MTnB2cK6f5te78B-48" value="Управление информацией о сотрудниках университета" style="ellipse;whiteSpace=wrap;html=1;" vertex="1" parent="1">
          <mxGeometry x="510" y="847.5" width="120" height="85" as="geometry" />
        </mxCell>
      </root>
    </mxGraphModel>
  </diagram>
</mxfile>
